# xmcd CD database file
#
# Track frame offsets:
#	150
#	20390
#	38380
#	62390
#	82382
#	103855
#	114252
#	139515
#	151805
#
# Disc length: 2301 seconds
#
# Revision: 0
# Processed by: cddbd v1.5.2PL0 Copyright (c) Steve Scherf et al.
# Submitted via: CDex 1.70beta2
#
DISCID=6308fb09
DTITLE=Aura Urziceanu - Seară de Jazz cu Aura
DYEAR=1900
DGENRE=Jazz
TTITLE0=Jocul ţambalelor
TTITLE1=Surpriză
TTITLE2=Pe Olt
TTITLE3=Ia-ţi mireasă ziua bună
TTITLE4=Pe deal pe la Cornăţel
TTITLE5=Nu-mi cere să cânt
TTITLE6=Iarna, iarna
TTITLE7=În amurg
TTITLE8=Înserare
EXTD=
EXTT0=
EXTT1=
EXTT2=
EXTT3=
EXTT4=
EXTT5=
EXTT6=
EXTT7=
EXTT8=
PLAYORDER=
